<svg xmlns="http://www.w3.org/2000/svg" viewBox="0 0 512 512">
  <defs>
    <linearGradient id="sky" x1="0" y1="0" x2="0" y2="1">
      <stop offset="0" stop-color="#2a3f66"/>
      <stop offset="0.62" stop-color="#e59a52"/>
      <stop offset="1" stop-color="#f2c46a"/>
    </linearGradient>
  </defs>
  <rect width="512" height="512" rx="112" fill="url(#sky)"/>
  <circle cx="370" cy="250" r="54" fill="#ffe9a8" opacity=".9"/>
  <path d="M0 360 Q130 300 256 340 T512 320 V512 H0Z" fill="#5d7a33"/>
  <path d="M0 420 Q160 370 300 410 T512 400 V512 H0Z" fill="#3e2c1c"/>
  <g stroke="#2a1d12" stroke-width="7" opacity=".55">
    <path d="M40 512 L120 412"/><path d="M130 512 L190 402"/><path d="M220 512 L262 404"/><path d="M310 512 L336 410"/><path d="M400 512 L410 404"/>
  </g>
  <!-- wiatrak -->
  <path d="M206 352 L222 196 H290 L306 352Z" fill="#7a4e2e"/>
  <path d="M212 196 L256 152 L300 196Z" fill="#5a3820"/>
  <rect x="244" y="288" width="24" height="64" rx="12" fill="#2a1d12"/>
  <rect x="246" y="232" width="20" height="22" rx="4" fill="#ffd27a"/>
  <g transform="translate(256 190)">
    <g fill="#f1e7d4" stroke="#3a2414" stroke-width="5">
      <g transform="rotate(20)"><rect x="6" y="-150" width="38" height="120" rx="4"/><line x1="0" y1="0" x2="0" y2="-150"/></g>
      <g transform="rotate(110)"><rect x="6" y="-150" width="38" height="120" rx="4"/><line x1="0" y1="0" x2="0" y2="-150"/></g>
      <g transform="rotate(200)"><rect x="6" y="-150" width="38" height="120" rx="4"/><line x1="0" y1="0" x2="0" y2="-150"/></g>
      <g transform="rotate(290)"><rect x="6" y="-150" width="38" height="120" rx="4"/><line x1="0" y1="0" x2="0" y2="-150"/></g>
    </g>
    <circle r="16" fill="#3a2414"/>
  </g>
  <!-- kłosy -->
  <g fill="#eab94a" stroke="#8a6418" stroke-width="3">
    <path d="M86 470 Q92 400 98 350" fill="none" stroke="#b89a48" stroke-width="6"/>
    <ellipse cx="98" cy="336" rx="12" ry="30"/>
    <path d="M426 470 Q420 410 414 366" fill="none" stroke="#b89a48" stroke-width="6"/>
    <ellipse cx="414" cy="352" rx="12" ry="30"/>
  </g>
</svg>
